<mxfile host="app.diagrams.net" modified="2024-02-15T14:01:31.493Z" agent="Mozilla/5.0 (Macintosh; Intel Mac OS X 10_15_7) AppleWebKit/537.36 (KHTML, like Gecko) Chrome/123.0.0.0 Safari/537.36 Edg/123.0.0.0" version="23.1.4" etag="5I04a0ibvMz7URnA8wZ0" type="github">
  <diagram name="Page-1" id="Y9kzYyXK-WCzAg4BRNja">
    <mxGraphModel>
      <root>
        <mxCell id="0" />
        <mxCell id="1" parent="0" />
      </root>
    </mxGraphModel>
  </diagram>
</mxfile>
